<?xml version="1.0" standalone="no"?>
<!DOCTYPE svg PUBLIC "-//W3C//DTD SVG 20010904//EN"
 "http://www.w3.org/TR/2001/REC-SVG-20010904/DTD/svg10.dtd">
<svg version="1.0" xmlns="http://www.w3.org/2000/svg"
 width="404.000000pt" height="298.000000pt" viewBox="0 0 404.000000 298.000000"
 preserveAspectRatio="xMidYMid meet">
<metadata>
Created by potrace 1.16, written by Peter Selinger 2001-2019
</metadata>
<g transform="translate(0.000000,298.000000) scale(0.100000,-0.100000)"
fill="#000000" stroke="none">
<path d="M60 2965 c0 -8 124 -669 275 -1467 151 -799 275 -1463 275 -1475 l0
-23 820 0 820 0 0 715 0 715 53 0 52 0 118 -678 c65 -372 117 -694 117 -714
l0 -38 725 0 725 0 0 1490 0 1490 -400 0 -400 0 0 -815 0 -815 -53 0 -53 0
-147 778 c-81 427 -147 794 -147 815 l0 37 -670 0 -670 0 0 -32 c0 -18 -52
-336 -117 -706 l-117 -673 -56 3 -55 3 -137 665 c-75 366 -137 682 -138 703
l0 37 -410 0 c-358 0 -410 -2 -410 -15z"/>
</g>
</svg>
