<?xml version="1.0" standalone="no"?>
<!DOCTYPE svg PUBLIC "-//W3C//DTD SVG 20010904//EN"
 "http://www.w3.org/TR/2001/REC-SVG-20010904/DTD/svg10.dtd">
<svg version="1.0" xmlns="http://www.w3.org/2000/svg"
 width="395.000000pt" height="299.000000pt" viewBox="0 0 395.000000 299.000000"
 preserveAspectRatio="xMidYMid meet">
<metadata>
Created by potrace 1.16, written by Peter Selinger 2001-2019
</metadata>
<g transform="translate(0.000000,299.000000) scale(0.100000,-0.100000)"
fill="#000000" stroke="none">
<path d="M1460 2716 l0 -273 292 83 c200 58 309 84 345 84 29 0 53 -3 53 -6 0
-4 38 -223 84 -488 47 -264 104 -589 126 -721 23 -132 84 -483 136 -780 51
-297 94 -557 94 -577 l0 -38 398 0 399 0 -24 128 c-13 70 -26 159 -29 198 l-7
72 34 10 c131 41 540 152 562 152 l27 0 0 1215 0 1215 -405 0 -405 0 0 -555 0
-555 -53 0 -53 0 -105 555 -104 555 -682 0 -683 0 0 -274z"/>
<path d="M1325 1143 c-32 -107 -38 -140 -36 -203 l2 -76 -411 -64 c-226 -36
-416 -67 -421 -71 -5 -3 16 -154 53 -367 l63 -362 397 0 398 0 0 635 c0 349
-1 635 -3 635 -2 0 -21 -57 -42 -127z"/>
</g>
</svg>
